<svg
  width="182"
  height="122"
  viewBox="0 0 182 122"
  fill="none"
  xmlns="http://www.w3.org/2000/svg"
>
  <mask
    id="mask0_31_396"
    style="mask-type:luminance"
    maskUnits="userSpaceOnUse"
    x="0"
    y="41"
    width="92"
    height="81"
  >
    <path d="M0 41.974H91.5885V122H0V41.974Z" fill="white"></path>
  </mask>
  <g mask="url(#mask0_31_396)">
    <path
      d="M61.2291 98.8594V109.927L11.1041 86.6406V77.6615L61.2291 54.3698V65.4427L23.3229 82.0469V82.2552L61.2291 98.8594ZM91 42.0729H7.17185C3.21352 42.0729 0.00518799 45.2813 0.00518799 49.2396V115.063C0.00518799 119.021 3.21352 122.229 7.17185 122.229H67.7291L91 42.0729Z"
      fill="#08A045"></path>
  </g>
  <mask
    id="mask1_31_396"
    style="mask-type:luminance"
    maskUnits="userSpaceOnUse"
    x="90"
    y="0"
    width="92"
    height="81"
  >
    <path d="M90.2552 0H182V80.6406H90.2552V0Z" fill="white"></path>
  </mask>
  <g mask="url(#mask1_31_396)">
    <path
      d="M170.76 44.9219L120.635 67.8958V56.8229L159.375 40.2187V40.0104L120.635 23.4062V12.3385L170.76 35.3125V44.9219ZM114.271 0.0364532L91 80.1927H174.693C178.646 80.1927 181.854 76.9844 181.854 73.026V7.20312C181.854 3.24479 178.646 0.0364532 174.693 0.0364532H114.271Z"
      fill="#427AA1"></path>
  </g>
</svg>